<svg xmlns="http://www.w3.org/2000/svg" viewBox="0 0 88 100">
  <g stroke="#D4A24A" stroke-width="3" fill="#D4A24A" stroke-linecap="round">
  <line x1="43.8" y1="0.0" x2="43.8" y2="19.1"/>
  <line x1="27.9" y1="14.2" x2="43.8" y2="19.1"/>
  <line x1="27.9" y1="14.2" x2="43.8" y2="34.9"/>
  <line x1="27.9" y1="14.2" x2="31.8" y2="39.5"/>
  <line x1="59.7" y1="14.2" x2="43.8" y2="19.1"/>
  <line x1="59.7" y1="14.2" x2="43.8" y2="34.9"/>
  <line x1="59.7" y1="14.2" x2="55.8" y2="39.4"/>
  <line x1="43.8" y1="19.1" x2="43.8" y2="34.9"/>
  <line x1="17.7" y1="28.0" x2="31.8" y2="39.5"/>
  <line x1="17.7" y1="28.0" x2="20.7" y2="45.3"/>
  <line x1="69.9" y1="28.0" x2="55.8" y2="39.4"/>
  <line x1="69.9" y1="28.0" x2="66.9" y2="45.3"/>
  <line x1="0.4" y1="30.2" x2="20.7" y2="45.3"/>
  <line x1="0.4" y1="30.2" x2="5.3" y2="45.6"/>
  <line x1="87.1" y1="30.2" x2="66.9" y2="45.3"/>
  <line x1="87.1" y1="30.2" x2="82.2" y2="45.6"/>
  <line x1="43.8" y1="34.9" x2="31.8" y2="39.5"/>
  <line x1="43.8" y1="34.9" x2="55.8" y2="39.4"/>
  <line x1="43.8" y1="34.9" x2="31.9" y2="55.0"/>
  <line x1="43.8" y1="34.9" x2="55.7" y2="55.0"/>
  <line x1="43.8" y1="34.9" x2="43.8" y2="63.1"/>
  <line x1="31.8" y1="39.5" x2="20.7" y2="45.3"/>
  <line x1="55.8" y1="39.4" x2="66.9" y2="45.3"/>
  <line x1="20.7" y1="45.3" x2="0.0" y2="50.9"/>
  <line x1="20.7" y1="45.3" x2="31.9" y2="55.0"/>
  <line x1="20.7" y1="45.3" x2="20.7" y2="65.4"/>
  <line x1="66.9" y1="45.3" x2="87.5" y2="50.9"/>
  <line x1="66.9" y1="45.3" x2="55.7" y2="55.0"/>
  <line x1="66.9" y1="45.3" x2="66.8" y2="65.4"/>
  <line x1="5.3" y1="45.6" x2="0.0" y2="50.9"/>
  <line x1="82.2" y1="45.6" x2="87.5" y2="50.9"/>
  <line x1="87.5" y1="50.9" x2="66.8" y2="65.4"/>
  <line x1="0.0" y1="50.9" x2="20.7" y2="65.4"/>
  <line x1="31.9" y1="55.0" x2="43.8" y2="63.1"/>
  <line x1="31.9" y1="55.0" x2="37.0" y2="70.3"/>
  <line x1="31.9" y1="55.0" x2="19.5" y2="75.9"/>
  <line x1="55.7" y1="55.0" x2="43.8" y2="63.1"/>
  <line x1="55.7" y1="55.0" x2="50.6" y2="70.3"/>
  <line x1="55.7" y1="55.0" x2="68.1" y2="75.9"/>
  <line x1="43.8" y1="63.1" x2="37.0" y2="70.3"/>
  <line x1="43.8" y1="63.1" x2="50.6" y2="70.3"/>
  <line x1="43.8" y1="63.1" x2="43.8" y2="86.5"/>
  <line x1="20.7" y1="65.4" x2="19.5" y2="75.9"/>
  <line x1="66.8" y1="65.4" x2="68.1" y2="75.9"/>
  <line x1="37.0" y1="70.3" x2="19.5" y2="75.9"/>
  <line x1="37.0" y1="70.3" x2="43.8" y2="86.5"/>
  <line x1="50.6" y1="70.3" x2="68.1" y2="75.9"/>
  <line x1="50.6" y1="70.3" x2="43.8" y2="86.5"/>
  <line x1="43.8" y1="86.5" x2="43.8" y2="92.9"/>
  <line x1="43.8" y1="92.9" x2="43.8" y2="100.0"/>
  <circle cx="43.8" cy="0.0" r="2.4"/>
  <circle cx="27.9" cy="14.2" r="2.4"/>
  <circle cx="59.7" cy="14.2" r="2.4"/>
  <circle cx="43.8" cy="19.1" r="2.4"/>
  <circle cx="17.7" cy="28.0" r="2.4"/>
  <circle cx="69.9" cy="28.0" r="2.4"/>
  <circle cx="0.4" cy="30.2" r="2.4"/>
  <circle cx="87.1" cy="30.2" r="2.4"/>
  <circle cx="43.8" cy="34.9" r="2.4"/>
  <circle cx="31.8" cy="39.5" r="2.4"/>
  <circle cx="55.8" cy="39.4" r="2.4"/>
  <circle cx="20.7" cy="45.3" r="2.4"/>
  <circle cx="66.9" cy="45.3" r="2.4"/>
  <circle cx="5.3" cy="45.6" r="2.4"/>
  <circle cx="82.2" cy="45.6" r="2.4"/>
  <circle cx="87.5" cy="50.9" r="2.4"/>
  <circle cx="0.0" cy="50.9" r="2.4"/>
  <circle cx="31.9" cy="55.0" r="2.4"/>
  <circle cx="55.7" cy="55.0" r="2.4"/>
  <circle cx="43.8" cy="63.1" r="2.4"/>
  <circle cx="20.7" cy="65.4" r="2.4"/>
  <circle cx="66.8" cy="65.4" r="2.4"/>
  <circle cx="37.0" cy="70.3" r="2.4"/>
  <circle cx="50.6" cy="70.3" r="2.4"/>
  <circle cx="19.5" cy="75.9" r="2.4"/>
  <circle cx="68.1" cy="75.9" r="2.4"/>
  <circle cx="43.8" cy="86.5" r="2.4"/>
  <circle cx="43.8" cy="92.9" r="2.4"/>
  <circle cx="43.8" cy="100.0" r="2.4"/>
  </g>
</svg>
